<svg xmlns="http://www.w3.org/2000/svg" viewBox="0 0 361.12 400.11"><defs><style>.cls-1{fill:#fff;stroke:#fff;stroke-miterlimit:10;stroke-width:10px;}</style></defs><title>Asset 1</title><g id="Layer_2" data-name="Layer 2"><g id="svg4162"><path id="path4714" class="cls-1" d="M159.05,5A154,154,0,1,0,313.1,159.05,154,154,0,0,0,159.05,5Zm0,26.78c71.77,0,130,57,130,127.27h0c0,70.29-58.19,127.27-130,127.27h0c-71.78,0-130-57-130-127.27S87.27,31.78,159.05,31.78Z"/><path id="rect4721" class="cls-1" d="M273.18,271.08l69.58,80.66c12,13.91,16.8,31.61,10.74,39.55h0c-6.06,7.94-20.69,3.1-32.69-10.8l-69.58-80.67c-12-13.9-16.8-31.61-10.74-39.55h0C246.55,252.34,261.19,257.17,273.18,271.08Z"/></g></g></svg>